<?xml version="1.0" encoding="utf-8"?>
<!-- Generator: Adobe Illustrator 24.2.3, SVG Export Plug-In . SVG Version: 6.00 Build 0)  -->
<svg version="1.1" id="Calque_1" xmlns="http://www.w3.org/2000/svg" xmlns:xlink="http://www.w3.org/1999/xlink" x="0px" y="0px"
	 viewBox="0 0 987.5 143" style="enable-background:new 0 0 987.5 143;" xml:space="preserve">
<g>
	<path d="M44.1,74.9L22.3,96.9v28H11.1V18.4h11.3v64.3l62.5-64.3h12.9L51.7,66.6l49.3,58.2H87.6L44.1,74.9z"/>
	<path d="M194.5,115.2v9.7h-75.3V18.4h73v9.7h-61.7V66h55.1v9.6h-55.1v39.5H194.5z"/>
	<path d="M296.2,115.2v9.7h-75.3V18.4h73v9.7h-61.7V66h55.1v9.6h-55.1v39.5H296.2z"/>
	<path d="M394.5,28.2c7.7,6.5,11.6,15.4,11.6,26.8c0,11.4-3.9,20.3-11.6,26.7c-7.7,6.4-18.4,9.7-31.9,9.7h-28.6v33.6h-11.3V18.4
		h39.8C376.1,18.4,386.8,21.7,394.5,28.2z M386.4,74.5c5.6-4.6,8.4-11.1,8.4-19.5c0-8.6-2.8-15.2-8.4-19.8
		c-5.6-4.6-13.6-6.9-24.2-6.9h-28.3v53.2h28.3C372.8,81.4,380.8,79.1,386.4,74.5z"/>
	<path d="M718.9,28.2c7.7,6.5,11.6,15.4,11.6,26.8c0,11.4-3.9,20.3-11.6,26.7c-7.7,6.4-18.4,9.7-31.9,9.7h-28.6v33.6h-11.3V18.4
		h39.8C700.5,18.4,711.2,21.7,718.9,28.2z M710.8,74.5c5.6-4.6,8.4-11.1,8.4-19.5c0-8.6-2.8-15.2-8.4-19.8
		c-5.6-4.6-13.6-6.9-24.2-6.9h-28.3v53.2h28.3C697.2,81.4,705.2,79.1,710.8,74.5z"/>
	<path d="M774.1,118.7c-8.6-4.7-15.3-11.2-20.1-19.4c-4.8-8.2-7.2-17.4-7.2-27.7c0-10.2,2.4-19.5,7.2-27.7
		c4.8-8.2,11.5-14.7,20.1-19.4c8.6-4.7,18.1-7.1,28.7-7.1c10.5,0,20,2.3,28.5,7c8.5,4.7,15.1,11.1,20,19.4
		c4.9,8.3,7.3,17.5,7.3,27.8c0,10.2-2.4,19.5-7.3,27.8c-4.9,8.3-11.5,14.7-20,19.4c-8.5,4.7-18,7-28.5,7
		C792.3,125.8,782.7,123.5,774.1,118.7z M825.6,110.1c6.8-3.8,12.1-9.1,16-15.8c3.9-6.7,5.8-14.3,5.8-22.6c0-8.3-1.9-15.8-5.8-22.6
		c-3.9-6.7-9.2-12-16-15.8c-6.8-3.8-14.4-5.7-22.8-5.7c-8.4,0-16,1.9-22.9,5.7c-6.8,3.8-12.2,9.1-16.1,15.8
		c-3.9,6.7-5.9,14.3-5.9,22.6c0,8.3,2,15.8,5.9,22.6c3.9,6.7,9.3,12,16.1,15.8s14.5,5.7,22.9,5.7
		C811.2,115.8,818.8,113.9,825.6,110.1z"/>
	<path d="M955.7,28.2c7.7,6.5,11.6,15.4,11.6,26.8c0,11.4-3.9,20.3-11.6,26.7c-7.7,6.4-18.4,9.7-31.9,9.7h-28.6v33.6h-11.3V18.4
		h39.8C937.3,18.4,947.9,21.7,955.7,28.2z M947.6,74.5c5.6-4.6,8.4-11.1,8.4-19.5c0-8.6-2.8-15.2-8.4-19.8
		c-5.6-4.6-13.6-6.9-24.2-6.9h-28.3v53.2h28.3C934,81.4,942,79.1,947.6,74.5z"/>
</g>
<path d="M530.4,46.3h-31.2V18.4h98.2v27.8h-31.2v78.6h-35.9V46.3z"/>
<g>
	<rect x="454.1" y="95.2" width="35.9" height="29.7"/>
	<rect x="454.1" y="18.4" width="35.9" height="65.3"/>
</g>
</svg>
