<?xml version="1.0" encoding="utf-8"?>
<!-- Generator: Adobe Illustrator 24.2.3, SVG Export Plug-In . SVG Version: 6.00 Build 0)  -->
<svg version="1.1" id="Calque_1" xmlns="http://www.w3.org/2000/svg" xmlns:xlink="http://www.w3.org/1999/xlink" x="0px" y="0px"
	 viewBox="0 0 981 328" style="enable-background:new 0 0 981 328;" xml:space="preserve">
<style type="text/css">
	.st0{fill:#05F05A;}
</style>
<g>
	<g>
		<rect x="257.3" y="68.3" class="st0" width="75.3" height="217.5"/>
	</g>
	<path class="st0" d="M458.1,8h-27.9v60.3h26.8c45.9,0,66.7,25.1,66.7,61.3c0,36.3-20.7,59.7-66.6,59.7h-26.9V68.3h-75.4v217.5h75.4
		v-36.2h27.9c86.9,0,133.3-48,133.3-120.5C591.5,56.5,545.1,8,458.1,8z"/>
	<polygon class="st0" points="884.7,161.5 962.9,68.3 876.2,68.3 780.4,182.1 780.4,68.7 705,68.3 705,285.8 780.8,285.9 
		835.3,220.7 891.4,322.5 976.1,322.5 	"/>
	<polygon class="st0" points="6.9,68.3 6.9,137.3 85.1,137.3 85.1,285.8 160.4,285.8 160.4,137.3 235.1,137.3 235.1,68.3 	"/>
	<g>
		<g>
			<rect x="607.4" y="68.3" class="st0" width="75.3" height="135.1"/>
		</g>
		<rect x="607.4" y="225.6" class="st0" width="75.3" height="60.3"/>
	</g>
</g>
</svg>
